<svg width="472" height="658" viewBox="0 0 472 658" fill="none" xmlns="http://www.w3.org/2000/svg">
<path opacity="0.4" d="M392.89 572.566C386.853 596.706 369.2 600.745 353.462 581.588L308.429 526.773L368.268 287.513C373.634 266.056 389.325 262.465 403.315 279.494L451.514 338.163L392.89 572.566Z" fill="url(#paint0_linear_161_13)"/>
<ellipse rx="38.668" ry="44.9524" transform="matrix(-0.999754 -0.0132648 -0.433743 -0.898939 351.669 545.715)" fill="url(#paint1_linear_161_13)"/>
<ellipse rx="42.4366" ry="48.1745" transform="matrix(-0.996856 -0.0733065 -0.391071 -0.918479 406.989 310.561)" fill="url(#paint2_linear_161_13)"/>
<path d="M127.72 235.792L246.066 290.751L118.346 382.571L-6.44419e-05 327.612L127.72 235.792Z" fill="url(#paint3_linear_161_13)"/>
<rect width="156.085" height="149.379" transform="matrix(0.811951 -0.583725 1.76923e-08 1 1.46472 177.905)" fill="url(#paint4_linear_161_13)"/>
<rect width="144.321" height="149.374" transform="matrix(0.828021 0.384531 3.77843e-09 1 128.499 87.2712)" fill="url(#paint5_linear_161_13)"/>
<rect width="220.566" height="213.804" transform="matrix(0.874697 0.484671 -2.29549e-08 1 49 336.902)" fill="url(#paint6_linear_161_13)"/>
<rect width="220.566" height="220.566" transform="matrix(0.874697 -0.484671 0.874697 0.484671 49 336.902)" fill="url(#paint7_linear_161_13)"/>
<rect width="220.566" height="213.804" transform="matrix(0.874697 -0.484671 2.29549e-08 1 242.071 443.804)" fill="url(#paint8_linear_161_13)"/>
<defs>
<linearGradient id="paint0_linear_161_13" x1="295.121" y1="573.495" x2="407.469" y2="588.065" gradientUnits="userSpaceOnUse">
<stop offset="0.292322" stop-color="#12121E" stop-opacity="0.49"/>
<stop offset="1" stop-color="#B1603D"/>
</linearGradient>
<linearGradient id="paint1_linear_161_13" x1="-171.368" y1="-1.11179" x2="31.7436" y2="157.124" gradientUnits="userSpaceOnUse">
<stop stop-color="#B1603D"/>
<stop offset="1" stop-color="#12121E"/>
</linearGradient>
<linearGradient id="paint2_linear_161_13" x1="42.4366" y1="0" x2="42.4366" y2="96.349" gradientUnits="userSpaceOnUse">
<stop stop-color="#B1603D"/>
<stop offset="1" stop-color="#2E2B2B" stop-opacity="0.97"/>
</linearGradient>
<linearGradient id="paint3_linear_161_13" x1="245.049" y1="299.228" x2="2.0615" y2="284.413" gradientUnits="userSpaceOnUse">
<stop stop-color="#69554C"/>
<stop offset="0.0562831" stop-color="#B1603D" stop-opacity="0.8"/>
<stop offset="0.973027" stop-color="#2E2B2B" stop-opacity="0.16"/>
</linearGradient>
<linearGradient id="paint4_linear_161_13" x1="156.318" y1="143.628" x2="-128.528" y2="-58.07" gradientUnits="userSpaceOnUse">
<stop offset="0.0562831" stop-color="#48331A"/>
<stop offset="0.361112" stop-color="#342C24"/>
<stop offset="0.523851" stop-color="#2E2B2B" stop-opacity="0.499923"/>
<stop offset="0.523951" stop-color="#2E2B2B" stop-opacity="0.6"/>
<stop offset="0.755652" stop-color="#2E2B2B"/>
</linearGradient>
<linearGradient id="paint5_linear_161_13" x1="32.2713" y1="68.1017" x2="143.196" y2="104.904" gradientUnits="userSpaceOnUse">
<stop offset="0.0562831" stop-color="#DD7700" stop-opacity="0.46"/>
<stop offset="0.987495" stop-color="#2E2B2B" stop-opacity="0.97"/>
</linearGradient>
<linearGradient id="paint6_linear_161_13" x1="9.9255" y1="207.034" x2="213.921" y2="-6.35258" gradientUnits="userSpaceOnUse">
<stop offset="0.0562831" stop-color="#7D4F3C"/>
<stop offset="0.584043" stop-color="#4A4645"/>
<stop offset="0.811448" stop-color="#2E2B2B"/>
</linearGradient>
<linearGradient id="paint7_linear_161_13" x1="220.896" y1="212.073" x2="10.0961" y2="-1.17637" gradientUnits="userSpaceOnUse">
<stop offset="0.0562831" stop-color="#F4901A"/>
<stop offset="0.555777" stop-color="#684E31"/>
<stop offset="0.741148" stop-color="#3F372F"/>
<stop offset="0.838855" stop-color="#2E2B2B"/>
</linearGradient>
<linearGradient id="paint8_linear_161_13" x1="9.9255" y1="207.034" x2="213.921" y2="-6.35258" gradientUnits="userSpaceOnUse">
<stop offset="0.0562831" stop-color="#12121E"/>
<stop offset="0.987495" stop-color="#2E2B2B"/>
</linearGradient>
</defs>
</svg>
